<svg width="98" height="17" viewBox="0 0 98 17" fill="none" xmlns="http://www.w3.org/2000/svg">
<path d="M8.58583 0.794922L13.1813 0.944282L8.58583 5.33938V0.794922ZM8.252 1.0403V5.56875H3.97993C5.43674 4.09219 6.83376 2.55757 8.252 1.0403ZM12.9361 1.65369L13.5256 1.85637L11.3974 3.12048L12.9361 1.65369ZM1.40837 2.15507H2.34207L4.51722 4.53397L3.50527 5.56875H1.40837C1.40852 4.43011 1.40837 3.29312 1.40837 2.15507ZM1.07452 2.3631V3.34986H0L1.07452 2.3631ZM1.6431 5.91012H8.17376L6.3533 10.8866L1.6431 5.91012ZM8.252 6.67817V13.6442L6.12379 12.4815C6.83341 10.5468 7.54205 8.61331 8.252 6.67817Z" fill="white"/>
<path d="M24.2398 3.37347C26.4951 3.37347 29.0915 5.0602 29.0915 8.45262C29.0915 11.9777 26.4951 13.5886 24.2398 13.5886C22.7236 13.5886 21.8329 12.7547 21.7002 12.4136V13.3991H18.7058V3.54404V0H21.7002V4.45374C21.8329 4.24526 22.7236 3.37347 24.2398 3.37347ZM23.8039 10.9543C25.0927 10.9543 26.1919 10.0825 26.1919 8.45262C26.1919 6.8796 25.0927 6.0078 23.8039 6.0078C22.572 6.0078 21.5676 6.86065 21.5676 8.45262C21.5676 10.1014 22.572 10.9543 23.8039 10.9543ZM33.7158 0V2.52062H30.7214V0H33.7158ZM33.7158 3.54404V13.3991H30.7214V3.54404H33.7158ZM41.9789 3.39242C42.2443 3.39242 42.5096 3.39242 42.756 3.44928V6.31104C42.5286 6.25418 42.2632 6.25418 42.0737 6.25418C40.2543 6.25418 38.795 7.56187 38.6434 9.38127V13.3991H35.649V3.54404H38.6434V5.95095C39.0982 4.47269 40.2354 3.39242 41.9789 3.39242ZM51.3792 0H54.3736V4.81382V13.3991H51.3792V12.4136C51.2465 12.7547 50.3558 13.5886 48.8396 13.5886C46.5843 13.5886 43.9879 11.9777 43.9879 8.45262C43.9879 5.0602 46.5843 3.37347 48.8396 3.37347C50.3558 3.37347 51.2465 4.24526 51.3792 4.45374V0ZM49.2755 10.9543C50.5074 10.9543 51.5118 10.1014 51.5118 8.45262C51.5118 6.86065 50.5074 6.0078 49.2755 6.0078C47.9867 6.0078 46.8875 6.8796 46.8875 8.45262C46.8875 10.0825 47.9867 10.9543 49.2755 10.9543ZM61.8407 3.37347C64.096 3.37347 66.6924 5.0602 66.6924 8.45262C66.6924 11.9777 64.096 13.5886 61.8407 13.5886C60.3245 13.5886 59.4338 12.7547 59.3011 12.4136V13.3991H56.3067V3.54404V0H59.3011V4.45374C59.4338 4.24526 60.3245 3.37347 61.8407 3.37347ZM61.4048 10.9543C62.6936 10.9543 63.7928 10.0825 63.7928 8.45262C63.7928 6.8796 62.6936 6.0078 61.4048 6.0078C60.1729 6.0078 59.1685 6.86065 59.1685 8.45262C59.1685 10.1014 60.1729 10.9543 61.4048 10.9543ZM75.562 3.50613H78.5375L72.5107 17H69.5163L71.3357 13.058L67.0715 3.50613H70.047L72.8139 9.83612L75.562 3.50613ZM84.7727 10.8974C85.3034 10.8974 85.6824 10.8216 86.0994 10.7079V13.1906C85.6824 13.3802 85.0001 13.5128 83.9957 13.5128C82.3468 13.5128 80.9633 12.9632 80.9633 9.93088V6.0078H79.5798V3.54404H80.9633V1.23188H83.9578V3.54404H86.0614V6.0078H83.9578V9.93088C83.9578 10.3668 84.0715 10.8974 84.7727 10.8974ZM92.581 3.37347C94.8173 3.37347 97.9444 5.0602 97.319 9.51393H90.4394C90.7805 10.5373 91.6713 11.068 92.8652 11.068C94.0782 11.068 94.4572 10.8027 95.1395 10.5184L96.7883 12.1104C95.9165 12.9632 94.7415 13.5886 92.7515 13.5886C90.3067 13.5886 87.3881 11.9019 87.3881 8.50948C87.3881 5.0602 90.3446 3.37347 92.581 3.37347ZM92.581 5.932C91.7281 5.932 90.8563 6.42475 90.4773 7.41026H94.6657C94.3625 6.42475 93.4338 5.932 92.581 5.932Z" fill="white"/>
</svg>
