<svg width="25" height="24" viewBox="0 0 25 24" fill="none" xmlns="http://www.w3.org/2000/svg">
<path d="M12.5253 2V9.36194C12.5253 9.39319 12.494 9.42444 12.4628 9.42444C12.244 9.51998 12.0565 9.61463 11.8378 9.70927C11.5565 9.83517 11.244 9.96196 10.9627 10.12L9.93143 10.5932L9.08764 10.9727L8.05635 11.4469C7.77509 11.5736 7.49382 11.6995 7.18131 11.8576C6.96255 11.9522 6.71254 12.079 6.49378 12.1737C6.46253 12.1737 6.46253 12.2049 6.43128 12.1737H6.40002C6.49378 12.0156 6.58753 11.8888 6.68129 11.7317C7.18131 10.8781 7.71258 10.0254 8.21261 9.17175C8.74388 8.25653 9.3064 7.33952 9.83768 6.42341C10.3377 5.5707 10.8377 4.71798 11.3377 3.89651C11.7128 3.26345 12.0878 2.66432 12.4315 2.03125C12.494 2.03125 12.494 2 12.5253 2C12.494 2 12.5253 2 12.5253 2V2Z" fill="#8C8C8C"/>
<path d="M18.588 12.1738C18.1193 12.4899 17.6192 12.7738 17.1505 13.0578C15.6192 13.9748 14.1191 14.8596 12.5878 15.7757C12.5565 15.7757 12.5565 15.807 12.5253 15.807C12.494 15.807 12.494 15.7757 12.494 15.7757V9.42456C12.494 9.39331 12.5253 9.39331 12.5565 9.39331C12.6815 9.45581 12.8065 9.5201 12.9628 9.5826C13.3378 9.77279 13.7441 9.93083 14.1191 10.1201C14.4629 10.2782 14.7754 10.4362 15.1191 10.5621C15.4629 10.7202 15.7754 10.8782 16.1192 11.0362C16.4004 11.163 16.713 11.2889 16.9942 11.447C17.2755 11.5738 17.588 11.6997 17.8693 11.8577C18.088 11.9524 18.3068 12.0791 18.5568 12.1738C18.5568 12.1425 18.5568 12.1738 18.588 12.1738V12.1738Z" fill="#141414"/>
<path d="M12.5253 21.9999C12.5253 21.9999 12.494 21.9999 12.5253 21.9999C12.494 21.9999 12.494 21.9999 12.4628 21.9678C11.8378 21.0838 11.244 20.2302 10.619 19.3453L8.74388 16.6916C8.1501 15.8389 7.52507 14.9862 6.9313 14.1004L6.46253 13.437C6.46253 13.4058 6.43127 13.4058 6.43127 13.3745C6.46253 13.3745 6.46253 13.4058 6.49378 13.4058C7.33757 13.9111 8.2126 14.4165 9.05639 14.9219C10.0252 15.5228 11.0252 16.0916 11.994 16.6916C12.1503 16.7863 12.3378 16.8809 12.494 16.9756C12.5253 16.9756 12.5253 17.0077 12.5253 17.039V21.9999Z" fill="#8C8C8C"/>
<path d="M6.40002 11.843C6.40002 11.8117 6.40002 11.8117 6.40002 11.843C6.71254 11.6849 7.02505 11.559 7.33757 11.401L8.55637 10.8322C8.86888 10.6742 9.1814 10.5483 9.49391 10.3902C9.93143 10.1688 10.4002 9.97951 10.8377 9.75807C11.1502 9.63128 11.4628 9.47324 11.7753 9.34734C11.994 9.25269 12.2128 9.15804 12.4315 9.03125C12.4628 9.03125 12.4628 9 12.494 9V15.4449C12.4628 15.4771 12.4628 15.4449 12.4315 15.4449C12.3378 15.3824 12.244 15.3503 12.1815 15.2869L6.46253 11.8751C6.43128 11.843 6.40002 11.843 6.40002 11.843ZM18.4943 13.0127C18.4943 13.0439 18.4943 13.0439 18.4631 13.0752C16.6505 15.6664 14.8379 18.2254 13.0253 20.8166C12.8378 21.1005 12.6503 21.3532 12.4628 21.6381V16.6137C12.8691 16.361 13.2753 16.1084 13.6816 15.8878L18.4631 13.0439C18.4631 13.0127 18.4943 13.0127 18.4943 13.0127V13.0127Z" fill="#3C3C3B"/>
<path d="M12.5253 9.39311V2.03296L18.5255 12.0798C18.5568 12.1111 18.588 12.1423 18.588 12.1745C18.463 12.112 18.338 12.0477 18.1818 11.9852C18.0255 11.9218 17.8693 11.8271 17.713 11.7638C17.6192 11.7325 17.5255 11.6691 17.4005 11.637C17.2442 11.5745 17.0567 11.4789 16.9005 11.4164C16.8067 11.3843 16.713 11.3218 16.6192 11.2896L15.9629 11.0057C15.8379 10.9423 15.7442 10.911 15.6192 10.8476C15.4629 10.7842 15.3066 10.6896 15.1504 10.6262C15.0566 10.5949 14.9629 10.5316 14.8691 10.5003L14.2128 10.2155C14.0878 10.153 13.9941 10.1208 13.8691 10.0574C13.7128 9.99492 13.5566 9.89938 13.4003 9.83599C13.3066 9.77348 13.1815 9.74134 13.0878 9.67884L12.5253 9.394V9.39311Z" fill="#343434"/>
</svg>
