<svg width="98" height="18" viewBox="0 0 98 18" fill="none" xmlns="http://www.w3.org/2000/svg">
<path d="M8.58583 1.29492L13.1813 1.44428L8.58583 5.83938V1.29492ZM8.252 1.5403V6.06875H3.97993C5.43674 4.59219 6.83376 3.05757 8.252 1.5403ZM12.9361 2.15369L13.5256 2.35637L11.3974 3.62048L12.9361 2.15369ZM1.40837 2.65507H2.34207L4.51722 5.03397L3.50527 6.06875H1.40837C1.40852 4.93011 1.40837 3.79312 1.40837 2.65507ZM1.07452 2.8631V3.84986H0L1.07452 2.8631ZM1.6431 6.41012H8.17376L6.3533 11.3866L1.6431 6.41012ZM8.252 7.17817V14.1442L6.12379 12.9815C6.83341 11.0468 7.54205 9.11331 8.252 7.17817Z" fill="white"/>
<path d="M24.2398 3.87347C26.4951 3.87347 29.0915 5.5602 29.0915 8.95262C29.0915 12.4777 26.4951 14.0886 24.2398 14.0886C22.7236 14.0886 21.8329 13.2547 21.7002 12.9136V13.8991H18.7058V4.04404V0.5H21.7002V4.95374C21.8329 4.74526 22.7236 3.87347 24.2398 3.87347ZM23.8039 11.4543C25.0927 11.4543 26.1919 10.5825 26.1919 8.95262C26.1919 7.3796 25.0927 6.5078 23.8039 6.5078C22.572 6.5078 21.5676 7.36065 21.5676 8.95262C21.5676 10.6014 22.572 11.4543 23.8039 11.4543ZM33.7158 0.5V3.02062H30.7214V0.5H33.7158ZM33.7158 4.04404V13.8991H30.7214V4.04404H33.7158ZM41.9789 3.89242C42.2443 3.89242 42.5096 3.89242 42.756 3.94928V6.81104C42.5286 6.75418 42.2632 6.75418 42.0737 6.75418C40.2543 6.75418 38.795 8.06187 38.6434 9.88127V13.8991H35.649V4.04404H38.6434V6.45095C39.0982 4.97269 40.2354 3.89242 41.9789 3.89242ZM51.3792 0.5H54.3736V5.31382V13.8991H51.3792V12.9136C51.2465 13.2547 50.3558 14.0886 48.8396 14.0886C46.5843 14.0886 43.9879 12.4777 43.9879 8.95262C43.9879 5.5602 46.5843 3.87347 48.8396 3.87347C50.3558 3.87347 51.2465 4.74526 51.3792 4.95374V0.5ZM49.2755 11.4543C50.5074 11.4543 51.5118 10.6014 51.5118 8.95262C51.5118 7.36065 50.5074 6.5078 49.2755 6.5078C47.9867 6.5078 46.8875 7.3796 46.8875 8.95262C46.8875 10.5825 47.9867 11.4543 49.2755 11.4543ZM61.8407 3.87347C64.096 3.87347 66.6924 5.5602 66.6924 8.95262C66.6924 12.4777 64.096 14.0886 61.8407 14.0886C60.3245 14.0886 59.4338 13.2547 59.3011 12.9136V13.8991H56.3067V4.04404V0.5H59.3011V4.95374C59.4338 4.74526 60.3245 3.87347 61.8407 3.87347ZM61.4048 11.4543C62.6936 11.4543 63.7928 10.5825 63.7928 8.95262C63.7928 7.3796 62.6936 6.5078 61.4048 6.5078C60.1729 6.5078 59.1685 7.36065 59.1685 8.95262C59.1685 10.6014 60.1729 11.4543 61.4048 11.4543ZM75.562 4.00613H78.5375L72.5107 17.5H69.5163L71.3357 13.558L67.0715 4.00613H70.047L72.8139 10.3361L75.562 4.00613ZM84.7727 11.3974C85.3034 11.3974 85.6824 11.3216 86.0993 11.2079V13.6906C85.6824 13.8802 85.0001 14.0128 83.9957 14.0128C82.3468 14.0128 80.9633 13.4632 80.9633 10.4309V6.5078H79.5798V4.04404H80.9633V1.73188H83.9578V4.04404H86.0614V6.5078H83.9578V10.4309C83.9578 10.8668 84.0715 11.3974 84.7727 11.3974ZM92.581 3.87347C94.8173 3.87347 97.9444 5.5602 97.319 10.0139H90.4394C90.7805 11.0373 91.6713 11.568 92.8652 11.568C94.0782 11.568 94.4572 11.3027 95.1395 11.0184L96.7883 12.6104C95.9165 13.4632 94.7415 14.0886 92.7515 14.0886C90.3067 14.0886 87.3881 12.4019 87.3881 9.00948C87.3881 5.5602 90.3446 3.87347 92.581 3.87347ZM92.581 6.432C91.7281 6.432 90.8563 6.92475 90.4773 7.91026H94.6657C94.3625 6.92475 93.4338 6.432 92.581 6.432Z" fill="white"/>
</svg>
