<svg width="1520" height="990" viewBox="0 0 1520 990" fill="none" xmlns="http://www.w3.org/2000/svg">
<g clip-path="url(#clip0_1_39)" filter="url(#filter0_d_1_39)">
<rect width="1512" height="982" transform="translate(4)" fill="#070707"/>
<path d="M1587.77 168.102C1493.91 298.03 1483.03 386.742 1491.23 444.352C1500.38 508.646 1537.39 563.006 1521.02 577.375C1510.55 586.577 1485.68 572.785 1435.86 539.795C1284.76 439.759 1264.25 401.641 1225 411.73C1170.02 425.853 1172.31 510.442 1097.56 552.626C1042.66 583.606 980.831 572.181 935.333 556.453" stroke="#1C1C1C" stroke-width="0.615774" stroke-miterlimit="10"/>
<path d="M1593.35 172.449C1502.35 299.022 1488.24 387.282 1493.78 442.497C1499.97 504.201 1535.41 555.509 1518.76 568.732C1508.05 577.235 1483.64 563.674 1435.54 531.839C1289.35 435.115 1268.02 396.885 1229.29 407.313C1174.4 422.313 1180.29 510.934 1105.94 555.976C1104.32 556.958 1102.71 557.904 1101.09 558.808C1047.31 588.626 984.877 577.561 938.859 562.421" stroke="#1C1C1C" stroke-width="0.615774" stroke-miterlimit="10"/>
<path d="M1598.91 176.806C1510.77 300.013 1493.41 387.695 1496.31 440.649C1499.55 499.675 1533.42 548.022 1516.48 560.101C1505.54 567.906 1481.59 554.575 1435.21 523.892C1293.95 430.475 1271.75 391.999 1233.56 402.914C1178.72 418.592 1188.25 511.478 1114.3 559.331C1112.68 560.382 1111.06 561.429 1109.41 562.393C1055.33 593.861 990.23 583.398 942.373 568.388" stroke="#1C1C1C" stroke-width="0.615774" stroke-miterlimit="10"/>
<path d="M1604.48 181.153C1519.2 301.023 1498.6 387.935 1498.86 438.795C1499.15 495.034 1531.44 540.533 1514.22 551.468C1503.03 558.574 1479.56 545.472 1434.89 515.947C1298.54 425.825 1275.5 387.196 1237.85 398.514C1183.07 414.977 1196.23 512.046 1122.67 562.67C1121.04 563.795 1119.41 564.912 1117.75 565.958C1063.77 599.918 995.605 589.21 945.911 574.333" stroke="#1C1C1C" stroke-width="0.615774" stroke-miterlimit="10"/>
<path d="M1610.01 185.276C1527.57 301.831 1503.74 387.841 1501.35 436.809C1498.75 490.159 1529.39 532.952 1511.9 542.751C1500.47 549.16 1477.46 536.285 1434.51 507.904C1303.04 421.05 1279.15 382.255 1242.02 393.973C1187.29 411.243 1204.1 512.541 1130.91 565.923C1129.27 567.117 1127.62 568.313 1125.94 569.445C1071.84 605.455 1000.81 594.947 949.263 580.192" stroke="#1C1C1C" stroke-width="0.615774" stroke-miterlimit="10"/>
<path d="M1615.54 189.39C1535.94 302.636 1508.91 387.533 1503.84 434.821C1498.44 485.141 1527.35 525.364 1509.59 534.038C1497.9 539.746 1475.37 527.101 1434.13 499.861C1307.53 416.275 1282.81 377.322 1246.19 389.43C1191.52 407.512 1211.97 513.061 1139.14 569.156C1137.49 570.431 1135.84 571.71 1134.13 572.91C1079.91 610.953 1006.01 600.667 952.621 586.033" stroke="#1C1C1C" stroke-width="0.615774" stroke-miterlimit="10"/>
<path d="M1621.07 193.5C1544.31 303.443 1514.16 386.997 1506.33 432.829C1498.28 479.981 1525.29 517.778 1507.29 525.323C1495.34 530.331 1473.29 517.912 1433.75 491.82C1312.04 411.498 1286.46 372.395 1250.37 384.887C1195.75 403.792 1219.86 513.599 1147.38 572.385C1145.71 573.74 1144.05 575.096 1142.33 576.367C1087.99 616.428 1011.22 606.37 955.99 591.865" stroke="#1C1C1C" stroke-width="0.615774" stroke-miterlimit="10"/>
<path d="M1626.61 197.6C1552.69 304.241 1527.35 388.245 1508.83 430.833C1506.42 475.071 1523.24 510.18 1504.99 516.612C1492.78 520.913 1471.21 508.737 1433.37 483.771C1316.54 406.71 1290.12 367.464 1254.55 380.331C1199.98 400.069 1227.76 514.147 1155.62 575.598C1153.94 577.026 1152.26 578.464 1150.52 579.813C1096.04 621.877 1016.42 612.073 959.348 597.684" stroke="#1C1C1C" stroke-width="0.615774" stroke-miterlimit="10"/>
<path d="M1632.15 201.695C1561.05 305.038 1533.66 388.385 1511.32 428.837C1507.27 470.227 1521.19 502.576 1502.69 507.903C1490.21 511.495 1469.13 499.563 1433 475.741C1321.05 401.935 1293.78 362.561 1258.72 375.795C1204.21 396.375 1235.67 514.732 1163.85 578.823C1162.16 580.329 1160.48 581.846 1158.71 583.27C1104.09 627.323 1021.64 617.77 962.713 603.511" stroke="#1C1C1C" stroke-width="0.615774" stroke-miterlimit="10"/>
<path d="M1637.67 205.787C1569.41 305.832 1539.96 388.519 1513.82 426.841C1508.11 465.386 1519.12 494.97 1500.38 499.2C1487.64 502.078 1467.04 490.391 1432.63 467.71C1325.53 397.16 1297.43 357.661 1262.89 371.256C1208.43 392.686 1243.58 515.324 1172.07 582.04C1170.38 583.621 1168.68 585.215 1166.89 586.716C1112.13 632.747 1026.84 623.461 966.069 609.325" stroke="#1C1C1C" stroke-width="0.615774" stroke-miterlimit="10"/>
<path d="M1643.2 209.872C1577.77 306.623 1546.26 388.652 1516.31 424.841C1508.95 460.543 1517.06 487.354 1498.08 490.498C1485.07 492.655 1464.96 481.22 1432.25 459.685C1330.03 392.394 1301.09 352.771 1267.06 366.716C1212.67 389.009 1251.51 515.931 1180.3 585.25C1178.59 586.912 1176.88 588.579 1175.08 590.156C1120.16 638.157 1032.04 629.144 969.429 615.132" stroke="#1C1C1C" stroke-width="0.615774" stroke-miterlimit="10"/>
<path d="M1648.72 213.954C1586.13 307.407 1552.54 388.785 1518.79 422.837C1509.79 455.697 1514.99 479.732 1495.78 481.795C1482.5 483.223 1462.88 472.051 1431.87 451.646C1334.51 387.608 1304.74 347.873 1271.22 362.165C1216.88 385.329 1259.44 516.53 1188.5 588.442C1186.79 590.181 1185.07 591.92 1183.24 593.571C1128.16 643.534 1037.22 634.802 972.767 620.913" stroke="#1C1C1C" stroke-width="0.615774" stroke-miterlimit="10"/>
<path d="M1654.26 218.021C1594.49 308.186 1558.86 388.904 1521.3 420.839C1510.65 450.86 1512.95 472.107 1493.49 473.108C1479.95 473.803 1460.81 462.894 1431.51 443.626C1339.01 382.842 1308.41 342.999 1275.4 357.625C1221.13 381.674 1267.41 517.156 1196.74 591.642C1195.01 593.46 1193.27 595.277 1191.43 597.011C1136.17 648.919 1042.43 640.487 976.131 626.713" stroke="#1C1C1C" stroke-width="0.615774" stroke-miterlimit="10"/>
<path d="M1659.79 222.094C1602.85 308.969 1565.16 389.03 1523.79 418.838C1511.5 446.021 1510.91 464.481 1491.2 464.423C1477.39 464.382 1458.74 453.744 1431.14 435.612C1343.5 378.07 1312.06 338.127 1279.57 353.087C1225.36 378.032 1275.37 517.796 1204.95 594.84C1203.22 596.737 1201.47 598.63 1199.61 600.436C1144.18 654.295 1047.62 646.144 979.475 632.507" stroke="#1C1C1C" stroke-width="0.615774" stroke-miterlimit="10"/>
<path d="M1665.33 226.154C1611.22 309.749 1571.46 389.157 1526.29 416.844C1512.36 441.192 1508.87 456.857 1488.92 455.742C1474.84 454.959 1456.67 444.598 1430.78 427.594C1348.01 373.295 1315.74 333.265 1283.75 348.545C1229.62 374.394 1283.35 518.417 1213.17 598.032C1211.43 600.006 1209.66 601.973 1207.79 603.856C1152.18 659.657 1052.82 651.8 982.843 638.282" stroke="#1C1C1C" stroke-width="0.615774" stroke-miterlimit="10"/>
<path d="M1670.87 230.213C1619.59 310.529 1577.77 389.286 1528.8 414.852C1513.22 436.369 1506.85 449.235 1486.64 447.079C1472.3 445.549 1454.62 435.466 1430.41 419.601C1352.5 368.543 1319.41 328.425 1287.91 344.023C1233.86 370.789 1291.34 519.082 1221.38 601.234C1219.63 603.287 1217.85 605.328 1215.94 607.292C1160.16 665.035 1058.01 657.479 986.192 644.089" stroke="#1C1C1C" stroke-width="0.615774" stroke-miterlimit="10"/>
<path d="M1676.69 234.344C1628.21 311.444 1584.31 389.606 1531.53 413.077C1514.31 431.778 1505.04 441.849 1484.56 438.653C1469.97 436.372 1452.75 426.566 1430.24 411.826C1357.15 363.969 1323.23 323.738 1292.22 339.661C1238.23 367.378 1299.48 520.045 1229.71 604.819C1227.95 606.954 1226.15 609.068 1224.24 611.107C1168.22 670.817 1063.24 663.562 989.555 650.275" stroke="#1C1C1C" stroke-width="0.615774" stroke-miterlimit="10"/>
<path d="M1682.52 238.485C1636.84 312.368 1590.88 389.946 1534.26 411.307C1515.38 427.191 1503.24 434.464 1482.5 430.227C1467.65 427.202 1450.89 417.665 1430.07 404.039C1361.82 359.387 1327.06 319.046 1296.53 335.287C1242.6 363.962 1307.64 521.002 1238.03 608.384C1236.27 610.6 1234.45 612.789 1232.52 614.906C1176.28 676.605 1068.49 669.645 992.922 656.468" stroke="#1C1C1C" stroke-width="0.615774" stroke-miterlimit="10"/>
<path d="M1688.33 242.628C1645.46 313.276 1587.52 367.7 1536.98 409.528C1518.07 425.18 1501.43 427.057 1480.42 421.784C1465.31 418 1449.01 408.744 1429.89 396.243C1366.46 354.793 1330.88 314.353 1300.82 330.907C1246.98 360.564 1315.8 521.974 1246.36 611.968C1244.58 614.261 1242.75 616.53 1240.8 618.724C1184.33 682.4 1073.73 675.739 996.289 662.685" stroke="#1C1C1C" stroke-width="0.615774" stroke-miterlimit="10"/>
<path d="M1694.15 246.773C1654.09 314.21 1602.85 384.895 1539.71 407.753C1516.94 415.997 1499.63 419.648 1478.34 413.338C1462.98 408.794 1447.14 399.822 1429.71 388.444C1371.12 350.205 1334.71 309.67 1305.13 326.532C1251.38 357.174 1323.98 522.943 1254.69 615.545C1252.91 617.922 1251.05 620.258 1249.09 622.535C1192.27 688.084 1078.97 681.835 999.654 668.892" stroke="#1C1C1C" stroke-width="0.615774" stroke-miterlimit="10"/>
<path d="M1699.98 250.923C1662.73 315.129 1610.15 387.986 1542.44 405.971C1518.42 412.349 1497.84 412.225 1476.26 404.881C1460.65 399.575 1445.26 390.887 1429.53 380.635C1375.78 345.608 1338.49 304.86 1309.44 322.148C1255.89 354.015 1332.3 523.997 1263.02 619.119C1261.24 621.58 1259.36 623.988 1257.38 626.344C1200.38 693.925 1084.21 687.93 1003.04 675.098" stroke="#1C1C1C" stroke-width="0.615774" stroke-miterlimit="10"/>
<path d="M1705.81 255.076C1671.38 316.047 1617.1 391.249 1545.18 404.182C1436.75 423.674 1361.95 288.374 1313.76 317.76C1258.81 351.259 1344.65 534.027 1265.68 630.152C1208.5 699.761 1089.46 694.027 1006.41 681.301" stroke="#1C1C1C" stroke-width="0.615774" stroke-miterlimit="10"/>
<path d="M414.006 1083.45C494.089 953.397 494.335 865.205 478.886 808.107C461.643 744.384 417.122 690.841 432.098 676.39C441.686 667.135 468.811 680.543 523.825 712.724C690.648 810.309 716.307 847.917 755.213 837.453C809.722 822.805 797.012 738.857 868.303 696.126C920.665 664.744 985.308 675.38 1033.78 690.474" stroke="#1C1C1C" stroke-width="0.615774" stroke-miterlimit="10"/>
<path d="M407.648 1079.38C485.244 952.616 488.86 864.791 476.418 810.014C462.514 748.799 419.959 698.246 435.381 684.921C445.295 676.352 471.93 689.541 525.057 720.608C686.499 814.996 713.018 852.722 751.363 841.919C805.694 826.39 788.799 738.437 859.353 692.845C860.892 691.851 862.419 690.894 863.974 689.977C915.34 659.742 980.585 670.015 1029.53 684.523" stroke="#1C1C1C" stroke-width="0.615774" stroke-miterlimit="10"/>
<path d="M401.306 1075.29C476.41 951.837 483.428 864.504 473.968 811.915C463.421 753.297 422.82 705.645 438.681 693.445C448.924 685.563 475.073 698.533 526.305 728.487C682.344 819.681 709.787 857.659 747.531 846.37C801.747 830.156 780.598 737.962 850.424 689.552C851.956 688.49 853.482 687.43 855.059 686.453C906.553 654.556 974.469 664.2 1025.29 678.561" stroke="#1C1C1C" stroke-width="0.615774" stroke-miterlimit="10"/>
<path d="M394.948 1071.22C467.566 951.041 478.007 864.389 471.503 813.825C464.31 757.914 425.677 713.054 441.965 701.981C452.547 694.786 478.187 707.538 527.537 736.371C678.192 824.381 706.517 862.518 743.684 850.826C797.749 833.817 772.375 737.461 841.482 686.27C843.016 685.133 844.551 684.003 846.123 682.944C897.223 648.549 968.331 658.399 1021.03 672.61" stroke="#1C1C1C" stroke-width="0.615774" stroke-miterlimit="10"/>
<path d="M388.619 1067.17C458.753 950.287 472.615 864.47 469.057 815.744C465.181 762.657 428.557 720.46 445.264 710.509C456.187 704.001 481.324 716.536 528.79 744.257C674.064 829.09 703.278 867.391 739.868 855.301C793.793 837.485 764.17 736.941 832.568 682.995C834.105 681.787 835.645 680.579 837.231 679.434C888.209 642.987 962.238 652.604 1016.83 666.672" stroke="#1C1C1C" stroke-width="0.615774" stroke-miterlimit="10"/>
<path d="M382.288 1063.13C449.938 949.534 467.211 864.764 466.614 817.666C465.978 767.546 431.437 727.874 448.561 719.037C459.833 713.221 484.457 725.534 530.041 752.144C669.938 833.799 700.038 872.256 736.053 859.78C789.83 841.148 755.951 736.395 823.662 679.735C825.201 678.448 826.737 677.156 828.34 675.942C879.204 637.46 956.154 646.82 1012.63 660.748" stroke="#1C1C1C" stroke-width="0.615774" stroke-miterlimit="10"/>
<path d="M375.963 1059.08C441.122 948.778 461.768 865.284 464.168 819.589C466.635 772.576 434.336 735.289 451.856 727.568C463.481 722.443 487.593 734.539 531.287 760.032C665.806 838.51 696.794 877.116 732.234 864.258C785.869 844.8 747.716 735.827 814.752 676.476C816.298 675.108 817.83 673.739 819.441 672.454C870.195 631.949 950.06 641.047 1008.41 654.826" stroke="#1C1C1C" stroke-width="0.615774" stroke-miterlimit="10"/>
<path d="M369.632 1055.04C432.304 948.029 447.962 864.121 461.72 821.515C458.77 777.458 437.233 742.717 455.147 736.098C467.129 731.671 490.718 743.533 532.539 767.93C661.679 843.233 693.55 881.978 728.419 868.749C781.905 848.455 739.47 735.248 805.846 673.23C807.389 671.788 808.929 670.337 810.552 668.974C861.209 626.461 943.979 635.27 1004.21 648.91" stroke="#1C1C1C" stroke-width="0.615774" stroke-miterlimit="10"/>
<path d="M363.304 1051.01C423.489 947.28 441.346 863.98 459.274 823.442C458.363 782.189 440.136 750.152 458.44 744.628C470.783 740.903 493.843 752.528 533.779 775.811C657.534 847.944 690.295 886.815 724.596 873.22C777.929 852.081 731.199 734.632 796.933 669.968C798.476 668.449 800.018 666.919 801.654 665.48C852.221 620.971 937.876 629.493 999.999 642.983" stroke="#1C1C1C" stroke-width="0.615774" stroke-miterlimit="10"/>
<path d="M356.982 1046.97C414.68 946.533 434.738 863.842 456.832 825.368C457.959 786.918 443.049 757.592 461.737 753.154C474.442 750.135 496.978 761.524 535.028 783.695C653.42 852.655 687.048 891.648 720.78 877.695C773.961 855.7 722.922 734.006 788.03 666.712C789.575 665.117 791.121 663.509 792.767 661.994C843.25 615.498 931.791 623.718 995.796 637.062" stroke="#1C1C1C" stroke-width="0.615774" stroke-miterlimit="10"/>
<path d="M350.659 1042.94C405.871 945.787 428.127 863.705 454.389 827.299C457.554 791.651 445.961 765.045 465.027 761.684C478.1 759.378 500.109 770.523 536.272 791.576C649.283 857.358 683.792 896.472 716.959 882.171C769.981 859.309 714.626 733.366 779.126 663.461C780.671 661.786 782.221 660.105 783.875 658.512C834.286 610.038 925.703 617.948 991.589 631.145" stroke="#1C1C1C" stroke-width="0.615774" stroke-miterlimit="10"/>
<path d="M344.343 1038.91C397.066 945.047 421.529 863.567 451.96 829.232C457.163 796.386 448.887 772.506 468.33 770.217C481.769 768.631 503.248 779.522 537.531 799.473C645.167 862.083 680.549 901.304 713.158 886.658C766.019 862.919 706.338 732.732 770.242 660.227C771.788 658.473 773.335 656.719 775.009 655.053C825.354 604.607 919.638 612.198 987.406 625.249" stroke="#1C1C1C" stroke-width="0.615774" stroke-miterlimit="10"/>
<path d="M338.011 1034.89C388.249 944.314 414.904 863.446 449.502 831.164C456.742 801.119 451.781 779.975 471.608 778.74C485.412 777.88 506.362 788.516 538.763 807.357C641.032 866.79 677.277 906.117 709.324 891.138C762.016 866.509 697.996 732.075 761.33 656.986C762.873 655.154 764.433 653.322 766.114 651.571C816.405 599.169 913.541 606.422 983.195 619.333" stroke="#1C1C1C" stroke-width="0.615774" stroke-miterlimit="10"/>
<path d="M331.701 1030.87C379.446 943.578 408.301 863.318 447.068 833.099C456.343 805.855 454.693 787.449 474.903 787.263C489.072 787.134 509.493 797.506 540.012 815.237C636.902 871.507 674.022 910.928 705.51 895.617C758.033 870.086 689.659 731.405 752.437 653.748C753.981 651.836 755.547 649.928 757.232 648.105C807.47 593.741 907.465 600.674 979.007 613.424" stroke="#1C1C1C" stroke-width="0.615774" stroke-miterlimit="10"/>
<path d="M325.377 1026.85C370.637 942.846 401.693 863.192 444.622 835.031C455.933 810.586 457.593 794.927 478.192 795.791C492.721 796.397 512.617 806.499 541.247 823.129C632.765 876.23 670.744 915.734 701.684 900.104C754.028 873.664 681.309 730.759 743.535 650.521C745.079 648.532 746.652 646.549 748.344 644.649C798.542 588.331 901.381 594.93 974.794 607.537" stroke="#1C1C1C" stroke-width="0.615774" stroke-miterlimit="10"/>
<path d="M319.061 1022.84C361.834 942.115 395.087 863.068 442.18 836.966C455.529 815.318 460.491 802.41 481.477 804.306C496.366 805.652 515.739 815.485 542.497 831.001C628.642 880.935 667.48 920.521 697.875 904.576C750.033 877.213 672.951 730.076 734.655 647.291C736.198 645.222 737.777 643.165 739.488 641.183C789.636 582.913 895.312 589.17 970.602 601.623" stroke="#1C1C1C" stroke-width="0.615774" stroke-miterlimit="10"/>
<path d="M312.702 1018.79C352.982 941.338 388.426 862.883 439.681 838.833C455.05 819.979 463.324 809.825 484.707 812.757C499.952 814.85 518.81 824.412 543.689 838.825C624.483 885.623 664.189 925.305 694.04 909.049C746.007 880.752 664.524 729.333 725.701 643.967C727.242 641.817 728.828 639.687 730.54 637.631C780.673 577.418 889.201 583.35 966.383 595.681" stroke="#1C1C1C" stroke-width="0.615774" stroke-miterlimit="10"/>
<path d="M306.333 1014.74C344.116 940.557 381.746 862.684 437.173 840.701C454.586 824.641 466.144 817.244 487.925 821.211C503.523 824.044 521.874 833.342 544.879 846.664C620.321 890.322 660.891 930.095 690.205 913.536C741.979 884.299 656.088 728.604 716.757 640.671C718.294 638.441 719.889 636.237 721.608 634.104C771.714 571.929 883.075 577.54 962.159 589.743" stroke="#1C1C1C" stroke-width="0.615774" stroke-miterlimit="10"/>
<path d="M299.984 1010.69C335.278 939.788 388.013 884.861 434.692 842.575C452.159 826.751 468.99 824.678 491.177 829.676C507.127 833.26 524.969 842.283 546.098 854.504C616.186 895.025 657.611 934.879 686.392 918.021C737.951 887.819 647.65 727.855 707.818 637.353C709.353 635.046 710.96 632.764 712.684 630.554C762.77 566.429 876.961 571.716 957.94 583.777" stroke="#1C1C1C" stroke-width="0.615774" stroke-miterlimit="10"/>
<path d="M293.622 1006.65C326.419 938.998 370.285 867.978 432.193 844.448C454.526 835.961 471.814 832.115 494.412 838.142C510.712 842.481 528.045 851.226 547.299 862.347C612.031 899.722 654.307 939.653 682.559 922.501C733.899 891.332 639.188 727.11 698.868 634.043C700.402 631.654 702.02 629.305 703.751 627.013C753.952 561.041 870.846 565.893 953.718 577.823" stroke="#1C1C1C" stroke-width="0.615774" stroke-miterlimit="10"/>
<path d="M287.26 1002.6C317.559 938.224 362.515 865.048 429.699 846.326C453.531 839.686 474.641 839.562 497.653 846.615C514.299 851.71 531.13 860.176 548.504 870.195C607.879 904.424 651.078 944.549 678.73 926.986C729.702 894.611 630.581 726.281 689.922 630.736C691.448 628.264 693.079 625.844 694.817 623.474C744.95 555.499 864.726 560.071 949.485 571.871" stroke="#1C1C1C" stroke-width="0.615774" stroke-miterlimit="10"/>
<path d="M280.897 998.552C308.703 937.449 355.102 861.942 427.206 848.209C535.906 827.511 629.122 961.297 674.903 931.468C727.092 897.466 616.756 716.562 685.887 619.934C735.947 549.96 858.614 554.245 945.26 565.92" stroke="#1C1C1C" stroke-width="0.615774" stroke-miterlimit="10"/>
</g>
<defs>
<filter id="filter0_d_1_39" x="0" y="0" width="1520" height="990" filterUnits="userSpaceOnUse" color-interpolation-filters="sRGB">
<feFlood flood-opacity="0" result="BackgroundImageFix"/>
<feColorMatrix in="SourceAlpha" type="matrix" values="0 0 0 0 0 0 0 0 0 0 0 0 0 0 0 0 0 0 127 0" result="hardAlpha"/>
<feOffset dy="4"/>
<feGaussianBlur stdDeviation="2"/>
<feComposite in2="hardAlpha" operator="out"/>
<feColorMatrix type="matrix" values="0 0 0 0 0 0 0 0 0 0 0 0 0 0 0 0 0 0 0.25 0"/>
<feBlend mode="normal" in2="BackgroundImageFix" result="effect1_dropShadow_1_39"/>
<feBlend mode="normal" in="SourceGraphic" in2="effect1_dropShadow_1_39" result="shape"/>
</filter>
<clipPath id="clip0_1_39">
<rect width="1512" height="982" fill="white" transform="translate(4)"/>
</clipPath>
</defs>
</svg>
