<svg width="17" height="16" viewBox="0 0 17 16" fill="none" xmlns="http://www.w3.org/2000/svg">
<path d="M10.6911 0L16.4134 0.185984L10.6911 5.65878V0ZM10.2754 0.305548V5.94438H4.95583C6.76985 4.10577 8.50942 2.19485 10.2754 0.305548ZM16.1081 1.06934L16.8421 1.32172L14.1921 2.89579L16.1081 1.06934ZM1.7537 1.69367H2.91636L5.62486 4.65587L4.36478 5.94438H1.7537C1.75389 4.52655 1.7537 3.11076 1.7537 1.69367ZM1.338 1.9527V3.18142H0L1.338 1.9527ZM2.046 6.36946H10.178L7.91115 12.5662L2.046 6.36946ZM10.2754 7.32584V16L7.62536 14.5521C8.50898 12.1431 9.39138 9.73548 10.2754 7.32584Z" fill="white"/>
</svg>
