<svg width="24" height="24" viewBox="0 0 24 24" fill="none" xmlns="http://www.w3.org/2000/svg">
<rect width="24" height="24" rx="12" fill="white"/>
<rect x="2" y="2" width="19.25" height="19.25" rx="8.02083" fill="white"/>
<path d="M12 21.25C17.3339 21.25 21.625 16.9589 21.625 11.625C21.625 6.29111 17.3339 2 12 2C6.66611 2 2.375 6.29111 2.375 11.625C2.375 16.9589 6.66611 21.25 12 21.25Z" fill="#2775CA"/>
<path d="M14.6469 13.1488C14.6469 11.7452 13.8047 11.264 12.1203 11.0635C10.9172 10.903 10.6766 10.5822 10.6766 10.0207C10.6766 9.45918 11.0776 9.09834 11.8797 9.09834C12.6016 9.09834 13.0026 9.33896 13.2031 9.94053C13.2433 10.0608 13.3636 10.141 13.4839 10.141H14.1255C14.2859 10.141 14.4063 10.0207 14.4063 9.86035V9.82021C14.2458 8.93789 13.5239 8.25615 12.6016 8.17598V7.21348C12.6016 7.05303 12.4813 6.93271 12.2808 6.89258H11.6792C11.5188 6.89258 11.3984 7.01289 11.3583 7.21348V8.13584C10.1552 8.29629 9.39326 9.09834 9.39326 10.101C9.39326 11.4244 10.1953 11.9457 11.8797 12.1463C13.0026 12.3468 13.3636 12.5874 13.3636 13.2291C13.3636 13.8708 12.8021 14.3119 12.0401 14.3119C10.9974 14.3119 10.6364 13.8707 10.5161 13.2691C10.4761 13.1088 10.3558 13.0285 10.2354 13.0285H9.55361C9.39326 13.0285 9.27295 13.1488 9.27295 13.3093V13.3494C9.4333 14.352 10.075 15.0738 11.3984 15.2744V16.2369C11.3984 16.3973 11.5188 16.5176 11.7192 16.5577H12.3208C12.4813 16.5577 12.6016 16.4374 12.6417 16.2369V15.2744C13.8448 15.0738 14.6469 14.2316 14.6469 13.1488V13.1488Z" fill="white"/>
<path fill-rule="evenodd" clip-rule="evenodd" d="M6.3855 9.65991C5.22241 12.748 6.82661 16.2371 9.95474 17.3599C10.075 17.4402 10.1954 17.6005 10.1954 17.7209V18.2824C10.1954 18.3625 10.1954 18.4027 10.1552 18.4427C10.1152 18.6032 9.95474 18.6834 9.79429 18.6032C7.54849 17.8813 5.82398 16.1568 5.1021 13.911C3.89898 10.1011 5.98442 6.05054 9.79429 4.84741C9.83442 4.80737 9.9146 4.80737 9.95474 4.80737C10.1152 4.84741 10.1954 4.96773 10.1954 5.12817V5.6896C10.1954 5.89019 10.1152 6.0105 9.95474 6.09067C8.3105 6.69224 6.98706 7.97554 6.3855 9.65991ZM13.8448 5.00781C13.8849 4.84736 14.0453 4.76718 14.2058 4.84736C16.4114 5.56923 18.1761 7.29375 18.8979 9.57968C20.1011 13.3895 18.0156 17.4401 14.2058 18.6433C14.1656 18.6833 14.0854 18.6833 14.0453 18.6833C13.8849 18.6433 13.8047 18.5229 13.8047 18.3625V17.8011C13.8047 17.6005 13.8849 17.4802 14.0453 17.4C15.6895 16.7984 17.013 15.5151 17.6145 13.8308C18.7776 10.7427 17.1734 7.25361 14.0453 6.13076C13.925 6.05048 13.8047 5.89013 13.8047 5.72968V5.16826C13.8047 5.08798 13.8047 5.04794 13.8448 5.00781Z" fill="white"/>
</svg>
