<svg width="20" height="18" viewBox="0 0 20 18" fill="none" xmlns="http://www.w3.org/2000/svg">
<path fill-rule="evenodd" clip-rule="evenodd" d="M3.66461 0.388445L0.0163591 8.05005C0.00177063 8.07781 -0.00325384 8.1096 0.00206445 8.14051C0.00738273 8.17141 0.0227468 8.1997 0.0457752 8.22099L9.89397 17.6626C9.92231 17.6881 9.9591 17.7023 9.99725 17.7023C10.0354 17.7023 10.0722 17.6881 10.1005 17.6626L19.9546 8.22099C19.9774 8.19955 19.9926 8.17128 19.9979 8.14044C20.0032 8.1096 19.9983 8.07787 19.984 8.05005L16.3358 0.388445C16.3261 0.361796 16.3082 0.338886 16.2848 0.322981C16.2613 0.307077 16.2334 0.298988 16.205 0.29987H3.79404C3.76608 0.300635 3.73891 0.30938 3.71575 0.325073C3.69258 0.340766 3.67439 0.362754 3.66331 0.388445H3.66461Z" fill="#50AF95"/>
<path fill-rule="evenodd" clip-rule="evenodd" d="M11.2678 8.83383C11.1972 8.83972 10.8317 8.86325 10.0182 8.86325C9.37009 8.86325 8.91022 8.8456 8.74516 8.83383C6.24054 8.72205 4.37229 8.28571 4.37229 7.76701C4.37229 7.2483 6.24054 6.80641 8.74516 6.69462V8.39782C8.90858 8.40959 9.37597 8.439 10.0241 8.439C10.802 8.439 11.1909 8.4037 11.2619 8.39782V6.69462C13.7606 6.80641 15.6289 7.24275 15.6289 7.76112C15.6289 8.2795 13.7658 8.72205 11.2678 8.83383ZM11.2678 6.52368V4.99699H14.7568V2.66919H5.2564V4.99699H8.74516V6.52368C5.91042 6.65442 3.7771 7.213 3.7771 7.89088C3.7771 8.56876 5.91042 9.12276 8.74516 9.25808V14.1441H11.2678V9.25808C14.0966 9.12734 16.2244 8.56843 16.2244 7.89676C16.2244 7.2251 14.0966 6.65312 11.2678 6.52401V6.52368Z" fill="white"/>
</svg>
